<?xml version="1.0" encoding="UTF-8" standalone="no"?>
<!DOCTYPE svg PUBLIC "-//W3C//DTD SVG 1.1//EN" "http://www.w3.org/Graphics/SVG/1.1/DTD/svg11.dtd">
<svg width="100%" height="100%" viewBox="0 0 549 195" version="1.1" xmlns="http://www.w3.org/2000/svg" xmlns:xlink="http://www.w3.org/1999/xlink" xml:space="preserve" xmlns:serif="http://www.serif.com/" style="fill-rule:evenodd;clip-rule:evenodd;stroke-linejoin:round;stroke-miterlimit:2;">
    <g transform="matrix(0.741249,0,0,0.741249,117.798,-353.713)">
        <g transform="matrix(0.270762,0,0,0.270762,-158.919,477.185)">
            <path d="M328.933,962.828C303.239,962.828 283.347,949.25 269.256,922.093L5.684,370.318C-0.947,356.329 -1.776,342.75 3.197,329.583C8.999,315.594 19.774,304.896 35.522,297.489C49.612,290.083 63.703,288.848 77.793,293.786C92.712,298.724 103.902,308.187 111.361,322.177L357.528,849.264L297.851,849.264L541.532,322.177C548.992,308.187 560.181,298.724 575.1,293.786C590.848,288.848 606.596,290.083 622.344,297.489C637.264,304.073 647.21,314.359 652.183,328.349C657.156,342.339 656.327,356.329 649.696,370.318L386.123,922.093C373.691,949.25 354.627,962.828 328.933,962.828Z" style="fill:rgb(248,248,248);fill-rule:nonzero;"/>
        </g>
        <g transform="matrix(0.270762,0,0,0.270762,-157.919,477.185)">
            <path d="M960.497,969C893.36,969 834.098,954.599 782.71,925.796C731.321,896.171 690.708,855.847 660.869,804.825C631.86,752.981 617.355,693.73 617.355,627.073C617.355,559.592 631.86,500.341 660.869,449.32C690.708,397.475 731.321,357.152 782.71,328.349C834.098,298.724 893.36,283.911 960.497,283.911C1026.8,283.911 1085.65,298.724 1137.04,328.349C1188.43,357.152 1228.63,397.475 1257.64,449.32C1287.48,500.341 1302.4,559.592 1302.4,627.073C1302.4,693.73 1287.89,752.981 1258.88,804.825C1229.87,855.847 1189.67,896.171 1138.28,925.796C1086.9,954.599 1027.63,969 960.497,969ZM960.497,857.904C1003.6,857.904 1041.72,848.029 1074.88,828.279C1108.03,808.529 1133.73,781.372 1151.96,746.809C1171.02,712.246 1180.56,672.334 1180.56,627.073C1180.56,581.811 1171.02,541.899 1151.96,507.336C1133.73,471.95 1108.03,444.382 1074.88,424.632C1041.72,404.882 1003.6,395.006 960.497,395.006C917.397,395.006 879.27,404.882 846.116,424.632C812.962,444.382 786.854,471.95 767.79,507.336C748.727,541.899 739.195,581.811 739.195,627.073C739.195,672.334 748.727,712.246 767.79,746.809C786.854,781.372 812.962,808.529 846.116,828.279C879.27,848.029 917.397,857.904 960.497,857.904Z" style="fill:rgb(248,248,248);fill-rule:nonzero;"/>
        </g>
        <g transform="matrix(0.270762,0,0,0.270762,-157.919,477.185)">
            <path d="M1695.85,969C1631.2,969 1572.77,954.187 1520.55,924.562C1469.17,894.113 1428.14,852.967 1397.47,801.122C1367.63,749.278 1352.71,690.85 1352.71,625.838C1352.71,560.827 1366.39,502.81 1393.74,451.789C1421.92,399.944 1460.05,359.209 1508.12,329.583C1556.19,299.135 1610.48,283.911 1670.99,283.911C1719.89,283.911 1765.06,294.197 1806.5,314.771C1847.95,334.521 1882.76,361.678 1910.94,396.241L1910.94,62.954C1910.94,44.027 1916.74,28.802 1928.35,17.282C1940.78,5.761 1956.11,0 1974.35,0C1993.41,0 2008.74,5.761 2020.35,17.282C2031.95,28.802 2037.75,44.027 2037.75,62.954L2037.75,625.838C2037.75,690.85 2022.42,749.278 1991.75,801.122C1961.91,852.967 1921.3,894.113 1869.91,924.562C1818.52,954.187 1760.5,969 1695.85,969ZM1695.85,857.904C1738.13,857.904 1775.84,848.029 1808.99,828.279C1842.15,807.706 1868.25,779.726 1887.32,744.34C1906.38,708.954 1915.91,669.453 1915.91,625.838C1915.91,581.4 1906.38,541.899 1887.32,507.336C1868.25,472.773 1842.15,445.617 1808.99,425.866C1775.84,405.293 1738.13,395.006 1695.85,395.006C1654.41,395.006 1616.7,405.293 1582.72,425.866C1549.56,445.617 1523.04,472.773 1503.15,507.336C1484.08,541.899 1474.55,581.4 1474.55,625.838C1474.55,669.453 1484.08,708.954 1503.15,744.34C1523.04,779.726 1549.56,807.706 1582.72,828.279C1616.7,848.029 1654.41,857.904 1695.85,857.904Z" style="fill:rgb(248,248,248);fill-rule:nonzero;"/>
        </g>
        <g transform="matrix(0.270762,0,0,0.270762,-158.919,477.185)">
            <path d="M2443.08,969C2374.28,969 2312.95,954.599 2259.07,925.796C2206.03,896.171 2164.17,855.847 2133.5,804.825C2103.66,752.981 2088.74,693.73 2088.74,627.073C2088.74,559.592 2102.83,500.341 2131.02,449.32C2160.02,397.475 2199.81,357.152 2250.37,328.349C2300.93,298.724 2358.95,283.911 2424.43,283.911C2489.08,283.911 2544.61,298.312 2591.02,327.115C2637.44,355.094 2672.67,394.183 2696.7,444.382C2721.57,493.758 2734,550.952 2734,615.963C2734,631.599 2728.61,644.766 2717.84,655.464C2707.06,665.339 2693.39,670.276 2676.81,670.276L2175.77,670.276L2175.77,571.525L2673.08,571.525L2622.11,606.088C2621.28,564.941 2612.99,528.321 2597.24,496.227C2581.49,463.31 2559.11,437.387 2530.1,418.46C2501.09,399.532 2465.87,390.069 2424.43,390.069C2377.18,390.069 2336.57,400.355 2302.59,420.929C2269.43,441.502 2244.15,469.893 2226.75,506.102C2209.34,541.488 2200.64,581.811 2200.64,627.073C2200.64,672.334 2211,712.657 2231.72,748.043C2252.44,783.429 2281.04,811.409 2317.51,831.982C2353.97,852.555 2395.83,862.842 2443.08,862.842C2468.77,862.842 2494.88,858.316 2521.4,849.264C2548.75,839.388 2570.72,828.279 2587.29,815.935C2599.73,806.883 2612.99,802.357 2627.08,802.357C2642,801.534 2654.85,805.648 2665.62,814.701C2679.71,827.045 2687.17,840.623 2688,855.436C2688.83,870.248 2682.2,883.004 2668.11,893.702C2639.93,915.921 2604.7,934.025 2562.43,948.015C2520.99,962.005 2481.2,969 2443.08,969Z" style="fill:rgb(248,248,248);fill-rule:nonzero;"/>
        </g>
    </g>
</svg>
